# xmcd
#
# Track frame offsets:
#	150
#	15695
#	28666
#	41606
#	57484
#	68340
#	84189
#	96838
#	111474
#	126027
#	134568
#	148691
#	162216
#	174739
#	186120
#	198048
#	211067
#	222406
#	233803
#	245250
#	255584
#	266034
#
# Disc length: 3689 seconds
#
# Revision: 0
# Processed by: cddbd v1.5.2PL0 Copyright (c) Steve Scherf et al.
# Submitted via: audiograbber 1.83.01
#
DISCID=390e6716
DTITLE=Stidham, Arbee - The Complete - Vol. 2 - 1951-1957
DYEAR=2004
DGENRE=Blues
TTITLE0=Feeling Blue And Low
TTITLE1=I've Got News For You baby
TTITLE2=Bad Dream Blues
TTITLE3=Why Did I Fall In Love With You
TTITLE4=I'm In The Mood
TTITLE5=I Want To Rock
TTITLE6=Someone To Tell My Troubles To
TTITLE7=Mr. Commissioner  (master)
TTITLE8=Mr. Commissioner  (alt. take)
TTITLE9=Baby Stop The Clock
TTITLE10=Blues Why Do You Pick On Me
TTITLE11=Don't Set Your Cap For Me
TTITLE12=I Don't Play
TTITLE13=I'll Always Remember You
TTITLE14=Meet Me Halfway
TTITLE15=When I Find My Baby
TTITLE16=Please Let It Be Me
TTITLE17=Look Me Straight In The Eye  (alt. take)
TTITLE18=Look Me Straight In The Eye  (master)
TTITLE19=I Stayed Away Too Long  (alt. take)
TTITLE20=I Stayed Away Too Long  (2nd alt. take)
TTITLE21=I Stayed Away Too Long  (master)
EXTD=
EXTT0=
EXTT1=
EXTT2=
EXTT3=
EXTT4=
EXTT5=
EXTT6=
EXTT7=
EXTT8=
EXTT9=
EXTT10=
EXTT11=
EXTT12=
EXTT13=
EXTT14=
EXTT15=
EXTT16=
EXTT17=
EXTT18=
EXTT19=
EXTT20=
EXTT21=
PLAYORDER=
